<?xml version="1.0" encoding="UTF-8"?>
<svg xmlns="http://www.w3.org/2000/svg" width="152.224" height="62.433">
  <g data-name="Artwork 1">
    <g data-name="Group 18">
      <path fill="#32eb96" d="M0 40.049h152.224v22.384H0z" data-name="Rectangle 9"></path>
      <path fill="#fff" d="M5.3 19.613h14.211v-4.687H5.3V4.687h17.573V0H0v35.659h23.433v-4.687H5.3Zm29.869 9.832-5.747-16.656a4.731 4.731 0 0 0-6.073-2.81v.007l9.424 25.675h4.891l9.373-25.677h-5.094Zm24.807 2.394c-4.483 0-7.641-3.311-8.049-8.151h19.611c.051-.459.1-1.273.1-1.936 0-6.521-4.228-12.175-12.175-12.175-7.9 0-12.379 5.909-12.379 13.092 0 7.132 4.942 13.4 12.888 13.4 6.317 0 10.953-3.464 11.87-8.762H66.9c-.71 2.901-3.155 4.532-6.926 4.532Zm-.511-18.289c4.228 0 6.877 2.6 7.183 6.521H52.079c.764-4.279 3.362-6.521 7.386-6.521Zm20.884 1.375v-4.94h-4.941v25.674h4.941V24.044c0-5.6 1.528-9.781 6.215-9.781h3.209V9.985h-2.6c-3.614 0-5.652 1.528-6.824 4.941Zm37.8-5.349c-6.062 0-10.647 3.769-11.054 8.813h4.585c.153-2.6 2.75-4.84 6.317-4.84 3.973 0 6.215 2.14 6.215 5.247 0 .916-.56 1.528-1.732 1.528h-5.349c-6.062 0-9.984 3.056-9.984 8 0 4.584 3.464 7.743 8.711 7.743 3.872 0 7.132-1.834 8.354-4.585h.009a4.994 4.994 0 0 0 4.924 4.175v-.01l.009.01V19.1c-.004-5.7-4.386-9.523-11.008-9.523Zm6.059 14.824c0 4.738-2.7 7.743-7.386 7.743-2.853 0-4.789-1.579-4.789-3.923 0-2.7 2.191-4.432 5.553-4.432h6.622Zm13.345-7.591c0-1.987 1.783-3.311 4.432-3.311 2.191 0 5.044 1.171 5.4 4.126h4.635c-.255-4.839-4.228-8.048-10.035-8.048-5.349 0-9.119 2.954-9.119 7.387 0 10.952 14.57 4.687 14.57 11.513 0 1.885-1.885 3.464-4.84 3.464-3.311 0-5.45-1.681-5.756-4.636h-4.64c.357 5.4 4.381 8.762 10.392 8.762 5.808 0 9.628-3.006 9.628-7.692.004-11.716-14.667-5.196-14.667-11.564ZM97.008 6.868a4.937 4.937 0 0 0-4.941-4.927v25.313c0 5.247 3.311 8.405 8.507 8.405h4.026v-4.483h-3.617c-2.5 0-3.973-1.529-3.973-4.279V14.263h7.59V9.984h-7.59Z" data-name="Path 5"></path>
    </g>
  </g>
</svg>
